# AST/ASF file generated using VICON BodyLanguage
# -----------------------------------------------
:version 1.10
:name VICON
:units
  mass 1.0
  length 0.45
  angle deg
:documentation
   .ast/.asf automatically generated from VICON data using
   VICON BodyBuilder and BodyLanguage model FoxedUp or BRILLIANT.MOD
:root
   order TX TY TZ RX RY RZ
   axis XYZ
   position 0 0 0  
   orientation 0 0 0 
:bonedata
  begin
     id 1 
     name lhipjoint
     direction 0.722297 -0.617336 0.311742 
     length 2.6635 
     axis 0 0 0  XYZ
  end
  begin
     id 2 
     name lfemur
     direction 0.34202 -0.939693 0  
     length 7.39349  
     axis 0 0 20  XYZ
    dof rx ry rz
    limits (-160.0 20.0)
           (-70.0 70.0)
           (-60.0 70.0)
  end
  begin
     id 3 
     name ltibia
     direction 0.34202 -0.939693 0   
     length 7.36294   
     axis 0 0 20   XYZ
    dof rx
    limits (-10.0 170.0)
  end
  begin
     id 4 
     name lfoot
     direction 0.104879 -0.288152 0.951824   
     length 2.16981   
     axis -90 7.62852e-016 20   XYZ
    dof rx rz
    limits (-45.0 90.0)
           (-70.0 20.0)
  end
  begin
     id 5 
     name ltoes
     direction 1.53586e-011 -4.21895e-011 1   
     length 1.08218   
     axis -90 7.62852e-016 20   XYZ
    dof rx
    limits (-90.0 20.0)
  end
  begin
     id 6 
     name rhipjoint
     direction -0.75102 -0.589393 0.297631   
     length 2.78977  
     axis 0 0 0  XYZ 
  end
  begin
     id 7 
     name rfemur
     direction -0.34202 -0.939693 0   
     length 7.46076   
     axis 0 0 -20   XYZ
    dof rx ry rz
    limits (-160.0 20.0)
           (-70.0 70.0)
           (-70.0 60.0)
  end
  begin
     id 8 
     name rtibia
     direction -0.34202 -0.939693 0   
     length 7.31726   
     axis 0 0 -20   XYZ
    dof rx
    limits (-10.0 170.0)
 end
 begin
     id 9 
     name rfoot
     direction -0.107991 -0.296704 0.948844   
     length 2.09388  
     axis -90 -7.62852e-016 -20   XYZ
    dof rx rz
    limits (-45.0 90.0)
           (-20.0 70.0)
  end
  begin
     id 10 
     name rtoes
     direction -1.53559e-011 -4.21911e-011 1   
     length 1.04433   
     axis -90 -7.62852e-016 -20   XYZ
    dof rx
    limits (-90.0 20.0)
  end
  begin
     id 11 
     name lowerback
     direction 0.0165164 0.98272 0.184358   
     length 1.71896   
     axis 0 0 0   XYZ
    dof rx ry rz
    limits (-20.0 45.0)
           (-30.0 30.0)
           (-30.0 30.0)
  end
  begin
     id 12 
     name upperback
     direction -0.00887249 0.992297 0.123566   
     length 1.71504   
     axis 0 0 0   XYZ
    dof rx ry rz
    limits (-20.0 45.0)
           (-30.0 30.0)
           (-30.0 30.0)
  end
  begin
     id 13 
     name thorax
     direction -0.0157026 0.998908 0.0440032   
     length 1.77022   
     axis 0 0 0   XYZ
    dof rx ry rz
    limits (-20.0 45.0)
           (-30.0 30.0)
           (-30.0 30.0)
  end
  begin
     id 14 
     name lowerneck
     direction -0.0238856 0.998137 0.0561411   
     length 1.89341   
     axis 0 0 0   XYZ
    dof rx ry rz
    limits (-20.0 45.0)
           (-30.0 30.0)
           (-30.0 30.0)
  end
  begin
     id 15 
     name upperneck
     direction 0.0276574 0.952253 -0.304056   
     length 1.86999   
     axis 0 0 0   XYZ
    dof rx ry rz
    limits (-20.0 45.0)
           (-30.0 30.0)
           (-30.0 30.0)
  end
  begin
     id 16
     name head
     direction 0.00800083 0.994258 -0.106712  
     length 1.91492  
     axis 0 0 0   XYZ
    dof rx ry rz
    limits (-20.0 45.0)
           (-30.0 30.0)
           (-30.0 30.0)
  end
  begin
     id 17 
     name lclavicle
     direction 0.97203 0.225407 0.06595  
     length 3.34889  
     axis 0 0 0   XYZ
    dof ry rz
    limits (-20.0 10.0)
           (0.0 20.0)
  end
  begin
     id 18 
     name lhumerus
     direction 1 -4.48973e-011 2.20267e-027   
     length 4.85645   
     axis 180 -30 -90   XYZ
    dof rx ry rz
    limits (-60.0 90.0)
           (-90.0 90.0)
           (-90.0 90.0)
  end
  begin
     id 19
     name lradius
     direction 1 -4.4897e-011 4.60472e-027   
     length 2.79874   
     axis 180 -30 -90   XYZ
    dof rx
    limits (-10.0 170.0)
  end
  begin
     id 20
     name lwrist
     direction 1 -4.48952e-011 1.14928e-026   
     length 1.39937   
     axis -6.29373e-015 90 90   XYZ
    dof ry
    limits (-180.0 0.0)
 end
  begin
     id 21 
     name lhand
     direction 1 -4.48967e-011 2.29886e-026   
     length 0.573398   
     axis -1.46689e-014 90 90   XYZ
    dof rx rz
    limits (-90.0 90.0)
           (-45.0 45.0)
  end
  begin
     id 22 
     name lfingers
     direction 1 -4.48955e-011 4.59726e-026   
     length 0.462289   
     axis -2.93383e-014 90 90   XYZ
    dof rx
    limits (0.0 90.0)
  end
  begin
     id 23
     name lthumb
     direction 0.707107 -6.34866e-011 0.707107   
     length 0.663757   
     axis -90 45 5.69224e-014   XYZ
    dof rx rz
    limits (-45.0 45.0)
           (-45.0 45.0)
  end
  begin
     id 24 
     name rclavicle
     direction -0.981571 0.157346 0.108443   
     length 3.35257  
     axis 0 0 0   XYZ 
    dof ry rz
    limits (-10.0 20.0)
           (-20.0 0.0)
  end
  begin
     id 25 
     name rhumerus
     direction -1 -4.48967e-011 8.58308e-029  
     length 4.67018   
     axis 180 30 90   XYZ
    dof rx ry rz
    limits (-90.0 60.0)
           (-90.0 90.0)
           (-90.0 90.0)
  end
  begin
     id 26 
     name rradius
     direction -1 -4.48958e-011 4.52548e-027   
     length 2.65534   
     axis 180 30 90   XYZ
    dof rx
    limits (-10.0 170.0)
  end
  begin
     id 27 
     name rwrist
     direction -1 -4.48977e-011 1.14952e-026   
     length 1.32767   
     axis -6.29373e-015 -90 -90   XYZ
    dof ry
    limits (-180.0 0.0)
  end
  begin
     id 28
     name rhand
     direction -1 -4.48924e-011 2.29804e-026   
     length 0.594069   
     axis -1.46689e-014 -90 -90   XYZ
    dof rx rz
    limits (-90.0 90.0)
           (-45.0 45.0)
  end
  begin
     id 29
     name rfingers
     direction -1 -4.48998e-011 4.59888e-026   
     length 0.478954   
     axis -2.93383e-014 -90 -90   XYZ
    dof rx
    limits (0.0 90.0)
  end
  begin
     id 30
     name rthumb
     direction -0.707107 -6.34933e-011 0.707107   
     length 0.687685   
     axis -90 -45 -5.69224e-014   XYZ
    dof rx rz
    limits (-45.0 45.0)
           (-45.0 45.0)
  end
:hierarchy
  begin
    root lhipjoint rhipjoint lowerback
    lhipjoint lfemur
    lfemur ltibia
    ltibia lfoot
    lfoot ltoes
    rhipjoint rfemur
    rfemur rtibia
    rtibia rfoot
    rfoot rtoes
    lowerback upperback
    upperback thorax
    thorax lowerneck lclavicle rclavicle
    lowerneck upperneck
    upperneck head
    lclavicle lhumerus
    lhumerus lradius
    lradius lwrist
    lwrist lhand lthumb
    lhand lfingers
    rclavicle rhumerus
    rhumerus rradius
    rradius rwrist
    rwrist rhand rthumb
    rhand rfingers
  end

#!OML:ASF E:\pregnant2\Project 1\Capture day 1\Session 1\pregnant2.ASF
:FULLY-SPECIFIED
:DEGREES
2025
root -7.64741 17.2676 20.5638 25.0527 2.28428 3.33946
lowerback -16.5266 1.78027 5.40804
upperback -13.0378 1.73341 -0.757896
thorax -4.60189 0.464396 -3.63009
lowerneck -14.3204 -1.19804 -3.07929
upperneck 35.8137 0.481437 -3.44665
head 14.84 -0.681987 -0.805988
rclavicle -2.89232e-014 4.77083e-015
rhumerus -113.293 32.2369 -145.045
rradius 85.184
rwrist 33.2582
rhand -53.3982 -47.4835
rfingers 7.12502
rthumb -25.8472 -75.7471
lclavicle -2.89232e-014 4.77083e-015
lhumerus -117.456 -39.2925 143.556
lradius 94.1572
lwrist -18.8369
lhand -44.7641 34.2583
lfingers 7.12502
lthumb -17.5567 63.4856
rfemur -36.2573 7.89327 23.9554
rtibia 31.1485
rfoot -17.0034 -13.1773
rtoes 9.45344
lfemur -75.7499 13.3243 -25.4701
ltibia 101.553
lfoot 6.91399 -26.1846
ltoes -10.6653
2026
root -7.64546 17.2554 20.5616 25.0381 2.44047 3.35102
lowerback -16.4482 1.82976 5.47933
upperback -13.0099 1.79589 -0.793719
thorax -4.60373 0.49077 -3.70173
lowerneck -14.298 -1.27336 -3.1567
upperneck 35.7739 0.378679 -3.41243
head 14.8157 -0.729962 -0.793868
rclavicle -1.3418e-014 -6.36111e-015
rhumerus -113.341 32.1893 -145.23
rradius 85.1468
rwrist 33.2411
rhand -53.3857 -47.7151
rfingers 7.12502
rthumb -25.8352 -75.9804
lclavicle -1.3418e-014 -6.36111e-015
lhumerus -117.225 -39.3377 143.189
lradius 94.1767
lwrist -19.0345
lhand -44.7549 34.0953
lfingers 7.12502
lthumb -17.5478 63.3234
rfemur -36.4134 7.81234 23.9936
rtibia 31.5072
rfoot -17.1911 -13.2687
rtoes 9.46659
lfemur -76.0664 12.8382 -25.7659
ltibia 100.104
lfoot 5.12801 -25.8335
ltoes -11.3934
2027
root -7.64435 17.2447 20.5606 25.0102 2.61325 3.37016
lowerback -16.371 1.86513 5.54098
upperback -12.9784 1.84079 -0.828325
thorax -4.60278 0.509134 -3.76885
lowerneck -14.2698 -1.34206 -3.22528
upperneck 35.734 0.281725 -3.3756
head 14.7901 -0.773893 -0.781193
rclavicle 9.34288e-015 7.95139e-016
rhumerus -113.376 32.1424 -145.399
rradius 85.1091
rwrist 33.2133
rhand -53.3624 -47.9
rfingers 7.12502
rthumb -25.8129 -76.1686
lclavicle 9.34288e-015 7.95139e-016
lhumerus -117.024 -39.3669 142.852
lradius 94.1935
lwrist -19.2184
lhand -44.7501 33.9584
lfingers 7.12502
lthumb -17.5432 63.1869
rfemur -36.5343 7.80057 24.0057
rtibia 31.8405
rfoot -17.3816 -13.4503
rtoes 9.53014
lfemur -76.3296 12.3664 -26.0002
ltibia 98.6037
lfoot 3.28764 -25.3761
ltoes -12.1923
2028
root -7.64364 17.235 20.5601 24.9869 2.79517 3.39137
lowerback -16.3039 1.89106 5.59986
upperback -12.9514 1.87312 -0.860216
thorax -4.60293 0.521299 -3.83303
lowerneck -14.2315 -1.40464 -3.28897
upperneck 35.6963 0.190914 -3.33613
head 14.7633 -0.814186 -0.767205
rclavicle -2.00773e-014 -1.35174e-014
rhumerus -113.403 32.0969 -145.552
rradius 85.0729
rwrist 33.1852
rhand -53.3203 -48.031
rfingers 7.12502
rthumb -25.7725 -76.3054
lclavicle -2.00773e-014 -1.35174e-014
lhumerus -116.854 -39.3744 142.548
lradius 94.2092
lwrist -19.3769
lhand -44.7462 33.8376
lfingers 7.12502
lthumb -17.5394 63.0664
rfemur -36.6438 7.83882 24.0001
rtibia 32.1466
rfoot -17.5674 -13.6911
rtoes 9.65476
lfemur -76.5671 11.9102 -26.1742
ltibia 97.0577
lfoot 1.44152 -24.8
ltoes -13.0396
2029
root -7.64306 17.226 20.5603 24.9724 2.98154 3.41378
lowerback -16.2536 1.90943 5.65756
upperback -12.9268 1.89467 -0.888894
thorax -4.59827 0.528291 -3.89418
lowerneck -14.195 -1.46116 -3.3521
upperneck 35.6658 0.107476 -3.29175
head 14.7404 -0.850772 -0.750234
rclavicle 9.83984e-015 -5.56597e-015
rhumerus -113.42 32.0613 -145.687
rradius 85.0381
rwrist 33.1601
rhand -53.2681 -48.0952
rfingers 7.12502
rthumb -25.7226 -76.3769
lclavicle 9.83984e-015 -5.56597e-015
lhumerus -116.712 -39.3651 142.277
lradius 94.2256
lwrist -19.4983
lhand -44.7542 33.7287
lfingers 7.12502
lthumb -17.5471 62.9568
rfemur -36.7441 7.9062 23.9841
rtibia 32.4226
rfoot -17.7428 -13.9728
rtoes 9.73051
lfemur -76.7846 11.4684 -26.2871
ltibia 95.4641
lfoot -0.345277 -24.1221
ltoes -13.8879
